<svg version="1.1" id="Layer_1" xmlns="http://www.w3.org/2000/svg" xmlns:xlink="http://www.w3.org/1999/xlink" x="0px" y="0px"
	 width="100%" viewBox="0 0 200 200" enable-background="new 0 0 200 200" xml:space="preserve">
<path fill="#FEFEFD" opacity="1.000000" stroke="none" 
	d="
M118.000000,201.000000 
	C79.856888,201.000000 42.213688,200.967636 4.570834,201.066238 
	C1.792954,201.073517 0.895265,200.762161 0.901751,197.574844 
	C1.032917,133.115433 1.025471,68.655655 0.916304,4.196177 
	C0.911424,1.314346 1.637684,0.926927 4.299996,0.930602 
	C68.759537,1.019574 133.219269,1.018375 197.678818,0.933803 
	C200.297211,0.930368 201.091415,1.247628 201.086304,4.174988 
	C200.973389,68.801025 200.979919,133.427322 201.072388,198.053421 
	C201.076141,200.679337 200.323120,201.062622 197.950043,201.054840 
	C171.466919,200.967941 144.983414,201.000000 118.000000,201.000000 
z"/>
<path fill="#72B934" opacity="1.000000" stroke="none" 
	d="
M146.714050,85.249886 
	C146.993881,83.938583 147.073822,82.872932 147.091095,81.409363 
	C147.009628,79.894043 147.006134,78.776596 147.024384,77.323906 
	C147.052444,76.544815 147.075394,76.100929 147.000916,75.335953 
	C146.406052,74.308281 146.229599,73.543640 146.690979,72.346977 
	C147.718735,71.677933 148.540497,71.362808 149.683167,70.939751 
	C150.159042,70.765114 150.314011,70.698402 150.721466,70.649155 
	C152.106506,70.513168 153.239075,70.359741 154.691681,70.074379 
	C156.040527,69.350426 157.217453,69.327835 158.682846,69.084869 
	C159.477112,69.090889 159.923767,69.090019 160.687897,68.976974 
	C162.065872,68.361015 163.136963,67.977623 164.603821,68.876389 
	C167.708069,91.007935 162.001877,110.094948 146.358597,125.851273 
	C127.351974,144.995239 96.976646,150.005280 72.878716,138.110657 
	C47.551201,125.609100 33.217457,99.439407 36.724468,72.102394 
	C41.233856,36.951878 71.662376,12.256327 106.775208,15.161097 
	C110.497116,15.468998 112.748512,16.133993 111.342873,20.776644 
	C110.146477,24.728220 109.788315,28.933580 108.983810,33.408005 
	C107.486259,35.580528 105.664139,34.845856 103.549789,34.515686 
	C102.460426,34.379395 101.736656,34.319530 100.660645,34.287727 
	C99.628609,34.270954 98.947311,34.225346 97.937065,34.243450 
	C96.968216,34.301460 96.328148,34.352924 95.398361,34.606544 
	C94.684929,34.807453 94.272957,34.903515 93.548218,35.048668 
	C92.621231,35.236343 92.004066,35.362186 91.099655,35.654007 
	C90.385605,35.866821 89.970352,35.960400 89.235977,36.083656 
	C86.990578,36.246593 85.299538,37.066292 83.354263,38.072449 
	C82.904778,38.299976 82.724861,38.386253 82.274612,38.590485 
	C81.649490,38.856052 81.294632,39.003510 80.688217,39.272644 
	C80.270073,39.474049 80.103401,39.553623 79.688278,39.751400 
	C79.276611,39.951660 79.113388,40.033714 78.709290,40.245773 
	C78.308800,40.464417 78.149178,40.553055 77.747940,40.770603 
	C77.181961,41.065315 76.855881,41.227638 76.286850,41.512970 
	C75.724350,41.806988 75.404793,41.977665 74.861382,42.303310 
	C74.340813,42.672596 74.055122,42.901978 73.576279,43.339054 
	C73.105118,43.811493 72.834396,44.085392 72.358757,44.578568 
	C71.868607,45.091480 71.574387,45.375843 71.034729,45.861942 
	C69.013481,47.287178 67.427437,48.701694 66.086197,50.812469 
	C65.625824,51.388905 65.346886,51.699768 64.851196,52.222359 
	C64.113991,53.009892 63.582481,53.575710 63.012100,54.467350 
	C62.675999,55.013218 62.486732,55.322929 62.178131,55.868095 
	C61.977520,56.257099 61.897724,56.411556 61.693436,56.792076 
	C61.396111,57.309753 61.226799,57.603397 60.955254,58.126465 
	C60.779797,58.505932 60.709743,58.657818 60.527603,59.033836 
	C60.258392,59.553440 60.104515,59.850594 59.852726,60.382866 
	C59.681828,60.772732 59.612064,60.929142 59.431629,61.319145 
	C59.085724,62.040302 58.846649,62.526112 58.541996,63.316246 
	C58.225685,64.201782 58.021805,64.803421 57.756367,65.720459 
	C57.487370,66.618973 57.302689,67.209785 57.179489,68.129883 
	C57.087383,69.061493 56.985943,69.681313 56.797668,70.615913 
	C56.613880,71.357887 56.503277,71.783333 56.332901,72.542175 
	C56.150551,73.555229 56.009445,74.231560 55.810905,75.260056 
	C55.057106,78.971634 55.100899,82.315712 56.059059,85.990601 
	C56.277931,87.265808 56.357815,88.200516 56.673275,89.440308 
	C57.032379,90.845230 57.167419,91.950783 57.576748,93.324905 
	C58.098469,95.038765 58.400227,96.490326 59.391479,98.015869 
	C59.696377,98.455322 59.820057,98.631607 60.122810,99.079933 
	C60.408424,99.542374 60.514969,99.732773 60.754200,100.222824 
	C61.319939,101.742493 61.693848,102.988693 62.650993,104.319290 
	C62.980110,104.743965 63.113220,104.912781 63.447506,105.334045 
	C63.916302,105.927315 64.175262,106.274597 64.617218,106.894547 
	C65.188690,107.706253 65.568352,108.251892 66.269394,108.985962 
	C80.682739,124.711830 97.842628,128.233200 117.449783,121.984978 
	C120.830200,120.907730 123.793907,119.078224 126.863144,116.725723 
	C127.318390,116.371391 127.499191,116.232620 127.958549,115.905762 
	C128.792374,115.380310 129.380142,115.100945 130.190308,114.584801 
	C130.769104,114.142883 131.085052,113.871208 131.609344,113.357483 
	C132.120346,112.806877 132.415100,112.488922 132.935089,111.919212 
	C138.940750,105.181488 143.985199,98.283218 145.881958,89.248230 
	C146.315186,88.437164 146.471436,87.843056 146.527924,86.951447 
	C146.229141,86.250908 146.245911,85.863884 146.714050,85.249886 
z"/>
<path fill="#72B834" opacity="1.000000" stroke="none" 
	d="
M135.628479,73.060623 
	C136.774628,73.062996 137.517944,73.041969 138.618896,72.915169 
	C139.718002,72.359016 140.495041,72.236794 141.636887,72.816498 
	C141.953918,73.077560 141.963654,73.559692 142.046906,73.785965 
	C143.483337,77.349243 143.124619,80.769493 142.396790,84.608406 
	C141.846039,86.446426 141.523941,87.872612 141.216980,89.663467 
	C141.381531,92.086029 139.976700,93.800186 139.903198,96.142937 
	C139.472076,97.694420 138.760422,98.770302 138.114548,100.218445 
	C137.881287,100.677299 137.781891,100.856285 137.516083,101.289841 
	C137.002350,102.029312 136.628235,102.494820 136.148071,103.244766 
	C135.889252,103.659592 135.783295,103.823837 135.505890,104.225380 
	C135.090668,104.765961 134.839157,105.062691 134.394989,105.576675 
	C133.714264,106.397469 133.249588,107.016754 132.702988,107.944824 
	C132.431488,108.366608 132.315033,108.531982 131.798965,109.166977 
	C131.255859,109.789162 131.112350,109.941719 130.517487,110.551147 
	C129.905334,111.158310 129.744507,111.308609 129.328827,111.676117 
	C128.165894,112.600258 127.183952,113.204735 125.981995,114.132118 
	C108.727348,126.312088 87.952057,124.337700 73.362984,112.193443 
	C71.556725,110.689880 69.848930,109.137764 68.347885,106.866142 
	C67.820747,106.221703 67.525467,105.857368 67.023087,105.232574 
	C66.664909,104.814316 66.523521,104.648674 66.179276,104.235176 
	C65.851479,103.819115 65.726524,103.650917 65.432388,103.223633 
	C64.950233,102.449242 64.661209,101.919304 64.146378,101.181862 
	C63.862076,100.778893 63.751762,100.615089 63.492577,100.195061 
	C63.069080,99.412323 62.826118,98.870331 62.431484,98.066978 
	C62.226139,97.607201 62.150936,97.419304 61.974468,96.944046 
	C61.568142,95.675621 61.187302,94.725838 60.560387,93.532150 
	C60.336895,93.044769 60.254890,92.844482 60.064941,92.334770 
	C59.749565,91.388481 59.559158,90.746109 59.233604,89.779083 
	C58.949299,88.747108 58.859394,88.035019 58.752934,86.949532 
	C58.686104,85.823433 58.690777,85.066940 58.633514,83.923706 
	C58.603378,81.438522 58.647430,79.341354 58.608082,76.851974 
	C58.620037,75.684242 58.680103,74.910698 58.734634,73.756561 
	C58.887886,72.142212 59.258446,70.958862 59.616196,69.407944 
	C59.963131,67.934631 60.348564,66.844444 60.797546,65.425552 
	C61.184830,64.290405 61.560822,63.511150 62.053162,62.443878 
	C62.458656,61.620468 62.764511,61.095592 63.172699,60.292191 
	C63.569778,59.514027 63.859615,59.011974 64.267952,58.249638 
	C64.607353,57.679642 64.823204,57.369255 65.219238,56.842503 
	C65.706436,56.154358 66.015961,55.685154 66.434296,54.943504 
	C66.690269,54.534382 66.801903,54.375057 67.298386,53.766098 
	C67.820053,53.170193 67.956879,53.023922 68.514893,52.435593 
	C69.080406,51.844509 69.224739,51.695492 69.589310,51.322464 
	C70.885201,50.057781 71.961937,49.018188 73.209305,47.681099 
	C73.750748,47.120354 74.075081,46.811089 74.665092,46.282555 
	C78.832848,43.049824 83.249985,40.968925 88.077545,38.894417 
	C88.873039,38.597736 89.336456,38.441521 90.164932,38.185215 
	C91.275467,37.889065 92.038330,37.792328 93.197662,37.691200 
	C96.247864,37.637611 98.904892,37.661686 101.962753,37.665482 
	C102.899246,37.656525 103.434662,37.665997 104.373672,37.698475 
	C105.317879,37.736523 105.853325,37.804314 106.773041,38.024559 
	C107.397499,38.269623 107.632820,38.400810 108.115021,38.850044 
	C109.241135,41.372532 108.535439,43.347786 107.309288,45.631821 
	C107.061867,46.435928 106.984360,46.880569 106.959091,47.661888 
	C106.697769,50.963245 106.466217,53.946102 104.830154,56.933170 
	C103.981499,57.614204 103.312454,57.807758 102.269135,57.859642 
	C101.130638,57.768444 100.338371,57.497040 99.220535,57.666298 
	C98.364937,57.852375 97.788200,57.937714 96.931000,58.100700 
	C96.269440,58.253460 95.894432,58.356304 95.242569,58.576271 
	C94.771988,58.750793 94.581253,58.819107 94.099457,58.984772 
	C93.211044,59.279610 92.613632,59.476933 91.735733,59.870651 
	C81.333534,65.616257 77.393204,74.094986 80.042290,85.105835 
	C83.345490,82.729614 86.208717,80.123726 88.841866,77.211075 
	C94.400764,71.062141 100.479736,65.421272 106.287407,59.514809 
	C107.240463,58.545540 108.394211,57.925453 109.926819,57.238838 
	C110.566223,57.079582 110.809433,56.933170 111.039551,56.453079 
	C114.782623,52.201733 115.864357,56.211605 117.806358,58.607258 
	C118.054977,58.886402 118.049011,58.969452 118.090263,58.963837 
	C118.252037,59.140690 118.372566,59.323154 118.767166,59.685837 
	C119.041245,59.866051 119.030090,59.950371 119.072510,59.947327 
	C121.967323,61.873920 124.722794,63.899456 126.249924,67.478447 
	C126.193275,68.015610 126.129250,68.222046 125.912933,68.706100 
	C125.636307,69.147316 125.511948,69.310921 124.975945,69.901863 
	C124.425804,70.461296 124.287300,70.593376 123.743637,71.114098 
	C123.206665,71.632362 123.074860,71.761986 122.553574,72.284668 
	C122.035294,72.811172 121.906494,72.944633 121.392593,73.487549 
	C120.878914,74.036575 120.750343,74.176147 120.229927,74.737907 
	C119.158455,75.851135 118.448318,76.511574 117.578400,77.422592 
	C117.240982,77.767548 117.103943,77.902634 116.757843,78.233978 
	C116.409203,78.559013 116.269630,78.687798 115.719528,79.205521 
	C115.176125,79.727486 115.043236,79.860519 114.517334,80.400574 
	C113.992355,80.944061 113.860374,81.080536 113.528915,81.421562 
	C113.060707,81.900742 112.790138,82.173538 112.317451,82.657959 
	C111.567375,83.434845 110.995537,83.976761 110.266449,84.784401 
	C109.928001,85.153519 109.790108,85.299210 109.440796,85.658417 
	C109.086533,86.011429 108.943680,86.150925 108.585007,86.496704 
	C107.648567,87.371643 106.917877,88.029785 106.039551,88.951042 
	C105.706177,89.295509 105.571747,89.430466 105.030281,89.952202 
	C104.488297,90.463722 104.353348,90.588448 103.821396,91.083511 
	C103.294945,91.577202 103.165474,91.700554 102.654495,92.195740 
	C102.147537,92.692787 102.022079,92.817986 101.523315,93.324036 
	C101.026489,93.834724 100.902985,93.964569 100.405983,94.490318 
	C99.903870,95.018356 99.775253,95.150475 99.449837,95.479958 
	C98.714729,96.206284 98.166138,96.725113 97.472588,97.510750 
	C97.147919,97.878891 97.015205,98.026527 96.478165,98.625366 
	C95.645607,99.684830 95.072876,100.278412 96.142563,101.150726 
	C97.174911,101.580383 97.967987,101.739883 99.106552,101.762802 
	C100.289101,101.762253 101.153229,101.795319 102.345757,101.746490 
	C103.767227,101.699753 104.848595,101.587868 106.214539,101.168259 
	C107.158020,100.871857 107.789581,100.681946 108.699730,100.284348 
	C113.234383,98.436974 116.794136,95.895119 119.353989,91.641022 
	C119.605652,91.172493 119.706238,90.987404 119.961464,90.531891 
	C120.325500,89.912704 120.533302,89.563011 120.870193,88.944138 
	C121.084122,88.495346 121.167221,88.314697 121.367645,87.860214 
	C121.629723,87.209465 121.759453,86.827400 121.946297,86.135582 
	C122.107857,85.406647 122.203743,84.984131 122.384888,84.229889 
	C122.848656,81.747421 122.611023,79.563828 122.881462,77.023445 
	C123.153458,75.860649 123.534317,75.181419 124.490524,74.428749 
	C128.264267,73.512550 131.709915,72.966454 135.628479,73.060623 
z"/>
<path fill="#F7FDF0" opacity="1.000000" stroke="none" 
	d="
M93.807877,58.093060 
	C94.033165,57.834301 94.231148,57.694397 94.334259,57.758110 
	C94.828117,57.862553 95.175713,57.754257 95.728546,57.369667 
	C96.724464,57.104038 97.478134,56.986881 98.611710,56.925735 
	C99.450928,56.989986 99.909737,56.978233 100.709549,56.902031 
	C101.749908,56.823315 102.448753,56.789013 103.489273,56.840317 
	C104.593445,56.494450 105.384750,56.236988 106.619354,56.759300 
	C107.792068,57.008663 108.611420,57.021496 109.839973,57.068817 
	C100.711365,66.772034 91.152809,76.420425 81.648125,86.121590 
	C78.709511,89.120949 78.535583,86.171219 78.138809,84.460945 
	C75.786369,74.320709 80.929741,64.122612 91.244293,58.874786 
	C92.249664,58.681377 92.919189,58.529106 93.807877,58.093060 
z"/>
<path fill="#F7FDF3" opacity="1.000000" stroke="none" 
	d="
M105.435341,38.461128 
	C104.649498,38.447968 104.165062,38.464054 103.345741,38.333954 
	C99.866066,37.873528 96.729301,37.773968 93.325294,38.694038 
	C92.422920,39.003483 91.820107,39.157578 90.909225,39.255714 
	C90.189774,39.139214 89.822983,39.245289 89.257339,39.678375 
	C84.357483,41.719662 79.737724,43.659847 75.426590,46.918663 
	C74.835289,47.209248 74.585892,47.410561 74.171936,47.791351 
	C72.808342,49.187233 71.630829,50.430313 70.168365,51.823402 
	C69.748001,52.152779 69.612579,52.332146 69.235916,52.746983 
	C68.994675,52.982452 69.001884,53.000443 68.992653,52.998123 
	C68.755768,53.225346 68.530083,53.456802 68.179672,53.896828 
	C68.052986,54.103481 68.024643,54.028519 68.064056,54.035767 
	C67.784477,54.231564 67.511993,54.471752 67.198654,55.030685 
	C66.876366,55.763832 66.649170,56.238453 66.191711,56.852509 
	C65.714775,57.256985 65.483047,57.534569 65.194397,58.085098 
	C64.946053,58.823990 64.767509,59.300739 64.373688,59.920788 
	C63.612408,60.374825 63.252468,60.827877 63.105347,61.742470 
	C62.834724,62.851383 62.562698,63.660469 62.100067,64.730865 
	C61.037582,65.950623 60.441280,67.021378 60.647472,68.664047 
	C60.550007,70.093506 60.337147,71.231033 59.999199,72.696548 
	C59.337341,73.714302 59.519764,74.521576 59.503262,75.592468 
	C59.550938,78.328033 59.598331,80.767426 59.589546,83.660767 
	C59.500751,84.912781 59.435940,85.711426 59.754227,86.746628 
	C60.068794,87.591911 60.204136,88.197098 60.279533,89.108688 
	C60.213737,90.126625 60.484146,90.790611 60.811821,91.745224 
	C61.047855,92.005081 61.234013,92.253380 61.202766,92.405365 
	C61.503696,93.903313 61.536140,95.349609 62.722843,96.746994 
	C62.958321,97.005630 63.181633,97.228767 63.180897,97.386612 
	C63.302395,98.225899 63.463768,98.897896 63.976852,99.711243 
	C64.287132,99.862602 64.149681,99.881096 64.200760,99.834198 
	C64.316109,100.022942 64.380379,100.258598 64.300720,100.831482 
	C63.747730,101.442657 63.301117,101.615883 62.451023,101.639984 
	C61.380512,101.417603 60.844360,100.942703 59.940163,100.468353 
	C59.589798,100.440285 59.594429,100.351799 59.633942,100.331757 
	C59.782524,99.916222 59.660095,99.602425 59.103500,99.201767 
	C57.763668,97.840828 57.242165,96.372650 56.948990,94.459641 
	C56.182751,93.001236 56.723503,91.680092 56.079597,90.282471 
	C55.532719,89.254013 55.290024,88.439835 55.079781,87.300613 
	C55.264416,83.244896 54.834042,79.520828 54.971771,75.386452 
	C54.950638,74.222176 54.943127,73.461617 55.055962,72.337952 
	C55.408501,71.651611 55.625042,71.318268 55.789154,70.676849 
	C55.799309,69.769089 55.843628,69.157616 56.015415,68.260559 
	C56.522724,67.470192 56.508129,66.840271 56.776497,65.983307 
	C57.033436,64.918564 57.197380,64.141121 57.574501,63.152222 
	C58.477940,62.596901 58.505806,61.900558 58.761940,60.958908 
	C58.851429,60.639759 58.859978,60.274605 58.972160,60.130493 
	C59.337246,59.715004 59.565216,59.424091 59.807484,58.838757 
	C59.846779,58.563919 59.857346,58.223312 59.978092,58.103100 
	C60.328186,57.728508 60.539371,57.459774 60.810322,56.933392 
	C60.885887,56.688240 60.924004,56.288860 61.049904,56.132690 
	C61.308922,55.787098 61.442039,55.597668 61.752922,55.109886 
	C62.434597,53.964828 62.938515,53.118114 63.710049,52.132645 
	C64.254997,51.750675 64.504303,51.481293 64.803856,50.923531 
	C66.119919,48.377686 68.078026,46.763535 70.302246,45.001862 
	C71.016685,44.803120 71.380371,44.614193 71.780945,43.990776 
	C71.958794,43.381123 72.139671,43.163815 72.649384,42.997116 
	C73.144791,42.795803 73.400429,42.605236 73.828392,42.244995 
	C74.466400,41.725689 74.906982,41.342388 75.640953,40.904068 
	C76.570900,40.925201 77.123230,40.747334 77.676193,40.010956 
	C77.765793,39.720749 77.862236,39.772568 77.810997,39.791832 
	C78.112785,39.790974 78.404861,39.643860 78.820602,39.201630 
	C78.997078,39.016567 79.220245,38.811893 79.370377,38.831505 
	C79.927444,38.827347 80.290092,38.691105 80.801376,38.202545 
	C81.001060,37.979797 81.183441,37.767872 81.321419,37.790367 
	C83.965843,37.603809 86.152016,36.456985 88.690994,35.242435 
	C89.320885,34.920094 89.644897,34.802891 90.223206,34.749985 
	C91.137268,34.775787 91.755501,34.515316 92.694824,34.287785 
	C93.416519,34.026764 93.854111,33.930473 94.627914,33.866962 
	C95.499428,33.961777 96.026306,33.939487 96.780907,33.637943 
	C97.764801,33.436943 98.503555,33.340782 99.609451,33.325531 
	C100.755867,33.851109 101.565308,34.051003 102.733002,33.571831 
	C104.737633,33.549522 106.450645,33.665497 108.535988,33.785408 
	C108.940071,35.232616 108.971817,36.675888 109.006966,38.551720 
	C108.834969,39.165226 108.659569,39.346172 108.189835,39.289940 
	C107.725319,39.009136 107.555153,38.965504 107.158310,38.787498 
	C106.540077,38.549412 106.141777,38.495182 105.435341,38.461128 
z"/>
<path fill="#141414" opacity="1.000000" stroke="none" 
	d="
M92.417725,153.395279 
	C93.869850,157.151093 95.144157,160.550232 96.556732,164.318176 
	C99.025009,161.347961 99.585808,157.841049 100.961250,154.748703 
	C101.802437,152.857468 102.738983,151.946777 104.976349,151.980423 
	C107.872696,152.023956 107.534248,154.129593 107.804619,155.759369 
	C108.592186,160.506699 109.318642,165.269714 109.844124,170.051285 
	C109.983826,171.322433 111.582382,173.433411 108.515106,173.841995 
	C105.629547,174.226395 105.234650,172.509933 105.061691,170.302734 
	C104.823730,167.266022 104.732307,164.191681 103.399460,160.525986 
	C101.724144,164.405289 100.335983,167.701126 98.871391,170.962631 
	C98.417931,171.972443 98.305428,173.567032 96.951241,173.605133 
	C95.237038,173.653366 95.295952,171.871170 94.815453,170.720016 
	C93.487175,167.537704 92.166702,164.352127 90.689201,160.797501 
	C88.569313,164.183258 89.166183,167.698700 88.535545,170.919617 
	C88.093445,173.177536 87.319923,174.160995 85.024330,173.824600 
	C82.349945,173.432693 83.695641,171.649887 83.876404,170.396774 
	C84.586754,165.472366 85.393097,160.561737 86.173340,155.647507 
	C86.817841,151.588242 88.970787,151.008774 92.417725,153.395279 
z"/>
<path fill="#0E0E0E" opacity="1.000000" stroke="none" 
	d="
M64.065926,173.071167 
	C58.406273,168.739578 56.704288,163.803482 58.800613,158.652695 
	C60.837666,153.647537 66.164635,150.709595 71.749916,151.510895 
	C78.150673,152.429184 82.412956,157.382263 82.041328,163.470261 
	C81.641441,170.021255 76.964478,174.348831 70.203049,174.348755 
	C68.216064,174.348740 66.193192,174.352646 64.065926,173.071167 
z"/>
<path fill="#141414" opacity="1.000000" stroke="none" 
	d="
M140.975494,152.702545 
	C141.442261,153.657639 141.738129,154.253281 141.971390,154.872482 
	C144.242508,160.901871 146.503174,166.935211 148.929398,173.400665 
	C146.366028,173.822891 144.329697,174.767700 142.825058,171.438293 
	C141.734253,169.024612 134.154007,169.033829 133.115082,171.430908 
	C131.773148,174.527145 129.712112,173.892914 126.968193,173.499588 
	C129.503616,166.899063 131.954285,160.471924 134.442947,154.059540 
	C135.762543,150.659409 138.499817,152.316086 140.975494,152.702545 
z"/>
<path fill="#161616" opacity="1.000000" stroke="none" 
	d="
M123.684555,166.007401 
	C119.324074,165.867966 115.963684,166.228867 117.105400,171.720703 
	C117.469612,173.472610 116.267250,173.890091 114.679428,173.869522 
	C113.072777,173.848724 112.184891,173.369110 112.194069,171.619919 
	C112.224548,165.815811 112.190407,160.011307 112.237137,154.207413 
	C112.242004,153.603592 112.441360,152.801178 112.854996,152.433350 
	C115.507919,150.074341 126.616257,152.807938 128.027039,156.107727 
	C129.679718,159.973267 128.341644,163.305145 123.684555,166.007401 
z"/>
<path fill="#0D0D0D" opacity="1.000000" stroke="none" 
	d="
M38.884995,162.213379 
	C40.653812,154.561844 45.430317,150.914978 51.868496,151.669144 
	C54.246582,151.947723 55.471199,152.711792 55.195518,155.348007 
	C54.819141,158.947128 52.874870,156.308578 51.713657,156.251389 
	C48.839233,156.109756 46.461613,156.827011 44.938293,159.416626 
	C43.563747,161.753311 43.554253,164.174728 44.901684,166.501862 
	C46.418285,169.121185 48.868053,169.682648 51.729519,169.552032 
	C52.853657,169.500702 54.874077,166.985092 55.181313,170.527969 
	C55.406334,173.122879 54.331497,173.982483 51.856674,174.219925 
	C44.578026,174.918167 39.445206,170.433182 38.884995,162.213379 
z"/>
<path fill="#141414" opacity="1.000000" stroke="none" 
	d="
M150.953339,167.874237 
	C150.952652,163.254135 150.949051,159.116394 150.959366,154.978699 
	C150.963043,153.501160 150.691010,152.016449 153.093842,152.002487 
	C155.268478,151.989868 156.016922,152.708969 155.945389,154.851074 
	C155.823944,158.488266 156.125854,162.148880 155.847733,165.768768 
	C155.596985,169.032700 156.666946,170.286530 159.951920,169.862320 
	C161.253754,169.694199 163.057861,169.191345 163.069641,171.714935 
	C163.080658,174.074768 161.523666,173.818802 160.035522,173.822083 
	C158.877258,173.824646 157.694412,173.660522 156.565002,173.839172 
	C152.174911,174.533539 150.030396,173.045395 150.953339,167.874237 
z"/>
<path fill="#EFFBE4" opacity="1.000000" stroke="none" 
	d="
M131.812454,107.882126 
	C132.413574,106.810333 132.939194,106.032425 133.717529,105.122940 
	C134.215607,104.764427 134.458588,104.534927 134.814331,104.080353 
	C134.929459,103.857796 134.918152,103.944084 134.880829,103.921707 
	C135.848526,103.370934 136.194412,102.364822 136.757034,101.139847 
	C136.878952,100.852272 136.916229,100.967918 136.870148,100.928329 
	C138.162430,100.125725 138.432419,98.805573 138.782425,97.145279 
	C139.583298,94.780418 140.222702,92.713211 141.047119,90.337082 
	C143.311813,92.028572 139.547287,94.455200 141.792160,96.533318 
	C144.978592,95.044197 142.616501,90.792107 145.775894,89.082062 
	C145.169601,98.590317 140.035248,105.982956 133.445862,112.906494 
	C132.856216,113.214729 132.592041,113.418167 132.178192,113.833900 
	C131.810974,114.287422 131.618317,114.560638 131.179077,114.905884 
	C130.541763,115.479301 129.894363,115.457558 129.259521,115.993088 
	C129.126129,116.252899 129.127213,116.137848 129.168747,116.177643 
	C127.021309,116.856636 125.749535,116.131950 125.785141,113.380264 
	C126.676933,112.349564 127.359917,111.712257 128.312103,110.980865 
	C128.991440,110.817650 129.347595,110.640236 129.778290,110.077133 
	C129.906906,109.799942 129.913422,109.920868 129.854645,109.906281 
	C130.148560,109.780991 130.449219,109.590584 130.794617,109.056427 
	C130.899399,108.804680 130.933716,108.918518 130.874298,108.920212 
	C131.196701,108.765312 131.504105,108.516739 131.812454,107.882126 
z"/>
<path fill="#FEFDFE" opacity="1.000000" stroke="none" 
	d="
M122.178169,88.066467 
	C122.105904,88.289413 122.102127,88.702713 121.972549,88.863708 
	C121.632202,89.304764 121.429222,89.590363 121.184570,90.138985 
	C121.136200,90.397224 121.135635,90.747169 121.009186,90.868103 
	C119.744713,91.919670 118.587181,91.852524 117.153214,90.809219 
	C116.150299,89.498192 116.307205,88.371933 116.809296,87.315399 
	C118.063789,84.675591 117.203941,82.605560 114.988930,80.519356 
	C114.719643,80.019318 114.660744,79.795151 114.800812,79.285866 
	C114.999771,79.000755 115.000000,79.000000 115.000626,78.999611 
	C115.246437,78.799416 115.470642,78.578331 115.833725,78.161713 
	C115.993591,77.987465 116.000305,78.000000 115.994568,77.995956 
	C117.502838,77.148590 119.080902,76.371796 119.794525,74.237625 
	C119.978645,73.969521 120.000397,74.000824 119.983246,73.992432 
	C120.219139,73.790001 120.453911,73.575920 120.831696,73.166054 
	C120.992981,72.990311 121.000000,73.000000 120.995041,72.996498 
	C121.228157,72.784279 121.456444,72.565346 121.831894,72.158218 
	C121.988838,71.980247 122.000610,72.000610 121.990326,71.994873 
	C122.224960,71.786201 122.456345,71.568848 122.832047,71.158676 
	C122.989899,70.980270 123.000610,71.000610 122.990387,70.995392 
	C123.224281,70.786751 123.455399,70.569489 123.833664,70.162308 
	C123.993828,69.986221 124.000610,70.000610 123.993362,69.997314 
	C124.225777,69.786095 124.455086,69.567345 124.833862,69.161713 
	C124.993668,68.985664 125.000305,69.000305 124.993622,68.995979 
	C125.693459,68.490028 126.457603,68.278183 127.653824,68.763214 
	C129.536133,69.065208 130.604523,69.730080 130.965912,71.670296 
	C130.725342,72.306137 130.398041,72.514465 129.721375,72.659538 
	C128.876877,72.737007 128.329605,72.817062 127.621384,73.300682 
	C126.804550,73.987556 126.073418,74.270073 125.210693,74.883224 
	C124.665131,75.549118 124.320198,75.999939 123.868317,76.719574 
	C121.537720,79.272072 122.967613,81.905029 123.095322,84.732399 
	C123.104706,85.511078 123.070694,85.966705 122.883362,86.731216 
	C122.607559,87.330215 122.447693,87.598030 122.178169,88.066467 
z"/>
<path fill="#F7FDF0" opacity="1.000000" stroke="none" 
	d="
M127.959717,68.642151 
	C127.242195,69.000885 126.490494,69.004318 125.362862,68.999710 
	C125.954361,64.265007 120.859535,63.614071 119.219849,60.256981 
	C124.538376,60.099060 126.104713,64.327339 127.959717,68.642151 
z"/>
<path fill="#EFFBE4" opacity="1.000000" stroke="none" 
	d="
M125.433899,75.132828 
	C125.492531,74.485008 125.974998,73.871719 126.728561,73.131325 
	C127.388611,72.557091 127.848534,72.218529 128.721375,72.044510 
	C129.453171,72.019020 129.895111,72.017273 130.668533,72.013634 
	C132.519257,72.144043 134.103851,71.666496 135.789688,72.791519 
	C132.769714,74.411369 129.323578,74.837448 125.433899,75.132828 
z"/>
<path fill="#F7FDF0" opacity="1.000000" stroke="none" 
	d="
M118.034851,58.496029 
	C115.630058,58.602783 115.361732,53.603275 111.408478,56.114975 
	C110.758377,53.947853 111.671326,52.969292 114.060249,52.977882 
	C117.730721,52.991085 117.265472,55.967010 118.034851,58.496029 
z"/>
<path fill="#EFFBE4" opacity="1.000000" stroke="none" 
	d="
M142.540039,84.915176 
	C142.106873,81.652641 142.045624,78.285042 142.057281,74.464844 
	C145.185333,77.409203 144.520279,81.075508 142.540039,84.915176 
z"/>
<path fill="#F0FAE4" opacity="1.000000" stroke="none" 
	d="
M106.980774,56.579102 
	C106.187668,56.994602 105.402626,56.993370 104.224274,56.959030 
	C106.253540,54.644966 105.353447,51.267036 106.796860,48.295288 
	C109.053268,50.725475 105.949371,53.438221 106.980774,56.579102 
z"/>
<path fill="#F0FAE4" opacity="1.000000" stroke="none" 
	d="
M107.887230,39.440044 
	C108.081001,39.037205 108.266518,39.021641 108.731201,38.995178 
	C110.109886,41.498199 111.122437,43.995926 107.451355,45.835339 
	C107.385895,43.936634 107.632431,41.881981 107.887230,39.440044 
z"/>
<path fill="#EFFBE4" opacity="1.000000" stroke="none" 
	d="
M146.762711,77.197350 
	C147.821014,78.096085 147.561111,79.307930 147.203979,80.761719 
	C145.691803,79.980820 145.811157,78.735161 146.762711,77.197350 
z"/>
<path fill="#EFFBE4" opacity="1.000000" stroke="none" 
	d="
M164.915680,68.834671 
	C163.870789,69.112427 162.828094,69.048561 161.395386,68.924759 
	C162.184326,67.423363 163.342758,65.765427 164.915680,68.834671 
z"/>
<path fill="#EFFBE4" opacity="1.000000" stroke="none" 
	d="
M146.573502,72.043045 
	C146.958511,72.752380 147.020065,73.511719 146.992569,74.642952 
	C144.841873,74.453300 144.251389,73.562714 146.573502,72.043045 
z"/>
<path fill="#EFFBE4" opacity="1.000000" stroke="none" 
	d="
M141.941223,72.742920 
	C141.207687,73.029617 140.461472,72.981682 139.345886,72.871567 
	C139.690613,70.689232 140.639984,70.300735 141.941223,72.742920 
z"/>
<path fill="#EFFBE4" opacity="1.000000" stroke="none" 
	d="
M158.861694,68.839081 
	C158.087463,69.972954 156.867264,69.890327 155.363556,69.993835 
	C156.032440,68.930222 157.032166,67.861084 158.861694,68.839081 
z"/>
<path fill="#F7FDF0" opacity="1.000000" stroke="none" 
	d="
M118.937317,59.671436 
	C118.695946,59.858776 118.432457,59.708290 118.191147,59.186405 
	C118.416916,59.061478 118.650871,59.234344 118.937317,59.671436 
z"/>
<path fill="#EFFBE4" opacity="1.000000" stroke="none" 
	d="
M150.864182,70.540527 
	C150.821518,70.748337 150.669083,70.830078 150.260361,70.871811 
	C150.254181,70.692696 150.504288,70.553574 150.864182,70.540527 
z"/>
<path fill="#EFFBE4" opacity="1.000000" stroke="none" 
	d="
M146.686600,85.220253 
	C146.895401,85.406723 146.876877,85.809212 146.643234,86.432831 
	C146.438522,86.248062 146.448898,85.842163 146.686600,85.220253 
z"/>
<path fill="#F0FBE2" opacity="1.000000" stroke="none" 
	d="
M125.661957,113.090759 
	C126.054802,114.638199 126.878571,115.661064 128.854599,116.122589 
	C116.917625,127.753365 94.080803,129.595230 78.117470,120.385300 
	C73.187332,117.540909 68.861038,114.011742 65.150459,109.294724 
	C65.426323,107.563850 66.578888,106.696487 67.672195,105.389084 
	C77.267059,115.717834 88.659348,121.603096 103.020523,121.009727 
	C111.273621,120.668739 118.582603,117.766273 125.661957,113.090759 
z"/>
<path fill="#FCFDF9" opacity="1.000000" stroke="none" 
	d="
M67.866898,104.932442 
	C68.280174,107.064606 67.238907,108.055061 65.360825,108.835907 
	C64.700546,108.609268 64.343880,108.245453 63.920555,107.628571 
	C63.796394,106.990211 63.642082,106.650787 63.135948,106.206512 
	C62.896923,106.048210 62.988117,106.027092 62.955353,106.060516 
	C62.328072,104.657150 61.415466,103.318092 61.776123,101.326065 
	C62.437626,100.998741 62.881752,101.000015 63.658974,101.002563 
	C64.667336,101.407791 65.094475,102.075668 65.925873,102.722382 
	C66.179558,102.861374 66.098259,102.948120 66.106491,102.889252 
	C66.177803,103.177605 66.356483,103.448608 66.825272,103.821198 
	C67.260780,104.226662 67.521767,104.454330 67.866898,104.932442 
z"/>
<path fill="#F0FBE2" opacity="1.000000" stroke="none" 
	d="
M54.767120,75.327530 
	C56.964001,78.670303 55.833485,82.547752 55.379826,86.671799 
	C54.075729,83.248512 54.076180,79.472260 54.767120,75.327530 
z"/>
<path fill="#F0FAE4" opacity="1.000000" stroke="none" 
	d="
M88.627228,35.014503 
	C87.433029,37.545795 85.036537,38.117401 81.883003,37.863121 
	C83.527344,36.395069 85.816055,35.509239 88.627228,35.014503 
z"/>
<path fill="#F0FBE2" opacity="1.000000" stroke="none" 
	d="
M61.776924,100.734009 
	C62.322872,102.445213 62.652248,103.892952 62.952103,105.717316 
	C61.191422,104.845879 60.512299,102.914848 59.631271,100.764130 
	C60.246647,100.450378 60.903500,100.460464 61.776924,100.734009 
z"/>
<path fill="#F0FAE4" opacity="1.000000" stroke="none" 
	d="
M102.652435,33.320724 
	C102.370796,35.282089 101.413528,35.514629 100.050339,33.692314 
	C100.744469,33.340263 101.512360,33.274082 102.652435,33.320724 
z"/>
<path fill="#F0FBE2" opacity="1.000000" stroke="none" 
	d="
M55.764267,90.430573 
	C57.274834,90.752182 56.949265,92.120865 56.977913,93.731979 
	C56.005737,93.205879 55.987076,91.960640 55.764267,90.430573 
z"/>
<path fill="#F0FAE4" opacity="1.000000" stroke="none" 
	d="
M77.486801,39.762829 
	C77.806938,40.751694 78.163429,42.067776 76.108521,41.105003 
	C76.358826,40.501003 76.783310,40.152954 77.486801,39.762829 
z"/>
<path fill="#F0FAE4" opacity="1.000000" stroke="none" 
	d="
M96.761978,33.424675 
	C96.733566,34.480381 96.319977,35.163204 95.094521,34.128838 
	C95.475388,33.705242 95.986649,33.510746 96.761978,33.424675 
z"/>
<path fill="#F0FAE4" opacity="1.000000" stroke="none" 
	d="
M92.642044,34.072853 
	C92.377769,34.384300 91.776611,34.645550 90.826477,34.860542 
	C91.086723,34.550407 91.695953,34.286533 92.642044,34.072853 
z"/>
<path fill="#F0FAE4" opacity="1.000000" stroke="none" 
	d="
M58.599228,60.854950 
	C58.701511,61.296730 58.551594,61.953705 58.094677,62.775719 
	C57.974129,62.317223 58.160580,61.693684 58.599228,60.854950 
z"/>
<path fill="#F0FBE2" opacity="1.000000" stroke="none" 
	d="
M56.644753,65.920692 
	C56.785557,66.314674 56.701622,66.933342 56.380280,67.763504 
	C56.235252,67.365120 56.327633,66.755257 56.644753,65.920692 
z"/>
<path fill="#F0FBE2" opacity="1.000000" stroke="none" 
	d="
M129.411774,116.196289 
	C129.526077,115.852432 129.926041,115.451973 130.629242,115.014709 
	C130.520798,115.365166 130.109100,115.752426 129.411774,116.196289 
z"/>
<path fill="#F0FBE2" opacity="1.000000" stroke="none" 
	d="
M58.892269,99.317375 
	C59.145073,99.277466 59.420467,99.510742 59.684662,100.027870 
	C59.420589,100.071327 59.167725,99.830948 58.892269,99.317375 
z"/>
<path fill="#F0FAE4" opacity="1.000000" stroke="none" 
	d="
M73.768646,42.142410 
	C73.800400,42.348026 73.574989,42.587063 73.106812,42.889389 
	C73.079857,42.693733 73.295670,42.434780 73.768646,42.142410 
z"/>
<path fill="#F0FBE2" opacity="1.000000" stroke="none" 
	d="
M62.947968,106.335220 
	C63.188465,106.295021 63.480011,106.541840 63.812729,107.082077 
	C63.568939,107.124413 63.283978,106.873329 62.947968,106.335220 
z"/>
<path fill="#F0FBE2" opacity="1.000000" stroke="none" 
	d="
M132.253586,113.932388 
	C132.218338,113.747086 132.433075,113.479973 132.894913,113.125969 
	C132.929199,113.309578 132.716385,113.580078 132.253586,113.932388 
z"/>
<path fill="#F0FAE4" opacity="1.000000" stroke="none" 
	d="
M78.726807,39.030998 
	C78.761238,39.265675 78.525406,39.514786 78.024666,39.787491 
	C77.992012,39.555870 78.224274,39.300652 78.726807,39.030998 
z"/>
<path fill="#F0FAE4" opacity="1.000000" stroke="none" 
	d="
M80.702499,38.021198 
	C80.712059,38.250847 80.423065,38.521896 79.827286,38.822029 
	C79.814987,38.588280 80.109459,38.325439 80.702499,38.021198 
z"/>
<path fill="#F0FAE4" opacity="1.000000" stroke="none" 
	d="
M64.643005,50.815430 
	C64.743690,51.006977 64.608894,51.356026 64.225876,51.849480 
	C64.120949,51.653568 64.264236,51.313251 64.643005,50.815430 
z"/>
<path fill="#F0FAE4" opacity="1.000000" stroke="none" 
	d="
M59.612488,58.732178 
	C59.744434,58.923492 59.642094,59.283070 59.312050,59.814514 
	C59.182301,59.624397 59.280254,59.262417 59.612488,58.732178 
z"/>
<path fill="#F0FAE4" opacity="1.000000" stroke="none" 
	d="
M60.658890,56.836781 
	C60.771114,57.019371 60.656345,57.350506 60.320206,57.832260 
	C60.209858,57.650368 60.320873,57.317844 60.658890,56.836781 
z"/>
<path fill="#F0FAE4" opacity="1.000000" stroke="none" 
	d="
M61.710800,54.935238 
	C61.931324,55.155155 61.813622,55.451782 61.376694,55.838974 
	C61.280842,55.670662 61.385876,55.364799 61.710800,54.935238 
z"/>
<path fill="#F0FBE2" opacity="1.000000" stroke="none" 
	d="
M55.529877,70.585281 
	C55.704502,70.771782 55.654018,71.162987 55.389923,71.764526 
	C55.219124,71.579895 55.261944,71.184937 55.529877,70.585281 
z"/>
<path fill="#F0FAE4" opacity="1.000000" stroke="none" 
	d="
M71.614403,43.815056 
	C71.666908,44.038925 71.441734,44.384388 70.902626,44.801537 
	C70.838028,44.561035 71.087379,44.248844 71.614403,43.815056 
z"/>
<path fill="#FDFEFD" opacity="1.000000" stroke="none" 
	d="
M114.766594,79.801727 
	C119.537437,82.369865 119.918282,84.089996 117.041306,89.635284 
	C117.655434,96.015266 113.341827,98.118378 108.755409,100.433807 
	C108.271629,101.056908 107.948166,101.358406 107.274475,101.771591 
	C105.899200,102.263573 104.797104,102.559258 103.349167,102.831009 
	C101.914352,102.273216 100.761070,102.531448 99.309448,102.659645 
	C98.137505,102.704697 97.284752,102.623154 96.175934,102.344398 
	C95.153198,101.081505 95.017372,99.945549 95.738808,98.331482 
	C95.937790,97.926720 95.996895,97.994164 95.958008,97.971863 
	C96.217079,97.799049 96.464294,97.588844 96.818130,97.130875 
	C97.440247,96.355583 97.904991,95.768364 98.631912,95.068588 
	C99.178329,94.779640 99.438095,94.572563 99.814529,94.128983 
	C99.955658,93.923149 99.992119,93.992386 99.957443,93.974274 
	C100.212059,93.793694 100.463112,93.585190 100.818069,93.130081 
	C100.960197,92.929527 100.994476,92.994385 100.961761,92.977798 
	C101.214241,92.792587 101.463669,92.581680 101.815598,92.125153 
	C101.953850,91.921829 101.991829,91.991821 101.956520,91.973419 
	C102.212234,91.793602 102.464088,91.584908 102.814880,91.124886 
	C102.952988,90.920830 102.991432,90.991493 102.955795,90.972855 
	C103.213051,90.793083 103.465889,90.583595 103.810425,90.116364 
	C103.942200,89.906998 103.987190,89.983627 103.947060,89.964569 
	C104.216156,89.801361 104.468445,89.589432 104.811295,89.108597 
	C105.732285,87.989227 106.505768,87.070976 107.564438,86.050613 
	C108.143761,85.777687 108.415634,85.576767 108.819611,85.143509 
	C108.973976,84.941322 108.998093,84.998680 108.972290,84.981293 
	C110.043297,84.351303 111.223480,83.827751 111.797928,82.205284 
	C112.150314,81.674065 112.321533,81.401329 112.733551,81.060455 
	C113.203468,80.770805 113.436417,80.553383 113.832153,80.161636 
	C113.991119,79.983231 114.000931,79.999390 113.993439,79.994881 
	C114.159172,79.865700 114.332390,79.741035 114.766594,79.801727 
z"/>
<path fill="#F7FDF0" opacity="1.000000" stroke="none" 
	d="
M108.270126,101.183975 
	C108.182434,100.323242 108.219116,99.347260 108.616226,99.167503 
	C112.634781,97.348473 116.088936,95.124214 116.660225,90.055237 
	C118.067368,90.327774 119.135048,90.655067 120.542725,90.985703 
	C118.738754,95.962158 114.793915,98.985199 109.636230,101.129669 
	C109.052124,101.277710 108.806961,101.358002 108.270126,101.183975 
z"/>
<path fill="#F7FDF0" opacity="1.000000" stroke="none" 
	d="
M123.400284,84.749405 
	C121.645714,82.419044 119.057228,79.792908 123.412781,77.046677 
	C124.240417,79.480217 124.230682,81.965523 123.400284,84.749405 
z"/>
<path fill="#F0FAE4" opacity="1.000000" stroke="none" 
	d="
M93.478569,38.891697 
	C95.953072,36.266136 99.263794,36.668072 102.827621,37.900909 
	C99.984375,38.436516 96.957886,38.685257 93.478569,38.891697 
z"/>
<path fill="#EAFED9" opacity="1.000000" stroke="none" 
	d="
M95.614143,98.046875 
	C95.947609,99.052406 95.957428,100.178093 95.943558,101.725479 
	C94.920715,102.196823 93.613655,102.307121 93.291435,101.302094 
	C92.791046,99.741379 94.500069,99.154762 95.614143,98.046875 
z"/>
<path fill="#F7FDF0" opacity="1.000000" stroke="none" 
	d="
M119.676262,74.079292 
	C120.136169,76.303154 119.447289,77.957535 116.367584,77.994530 
	C117.117180,76.724297 118.245529,75.456680 119.676262,74.079292 
z"/>
<path fill="#F0FBE2" opacity="1.000000" stroke="none" 
	d="
M138.692780,97.064850 
	C138.776306,98.275146 139.683990,100.066605 137.207916,100.865746 
	C137.363266,99.686523 137.902466,98.484306 138.692780,97.064850 
z"/>
<path fill="#F0FBE2" opacity="1.000000" stroke="none" 
	d="
M62.943069,96.659363 
	C60.621746,96.684906 61.060188,94.919930 61.120895,92.967621 
	C61.756950,93.809265 62.342384,95.061188 62.943069,96.659363 
z"/>
<path fill="#F0FAE4" opacity="1.000000" stroke="none" 
	d="
M60.913551,68.642273 
	C59.769588,67.523994 59.431671,66.176445 61.584030,65.049973 
	C61.627720,66.104309 61.345978,67.216446 60.913551,68.642273 
z"/>
<path fill="#F7FDF0" opacity="1.000000" stroke="none" 
	d="
M111.681290,82.048965 
	C112.069244,83.594109 111.876282,85.028946 109.325233,84.971092 
	C109.758827,84.026306 110.571152,83.088715 111.681290,82.048965 
z"/>
<path fill="#F0FBE2" opacity="1.000000" stroke="none" 
	d="
M66.129776,102.552391 
	C65.210060,102.943855 64.392677,102.762207 64.047272,101.334496 
	C64.019630,100.798195 64.047188,100.592560 64.163300,100.087112 
	C64.861229,100.605995 65.470612,101.424706 66.129776,102.552391 
z"/>
<path fill="#F0FBE2" opacity="1.000000" stroke="none" 
	d="
M136.611237,101.017365 
	C136.925018,102.062263 137.279846,103.405365 135.212250,103.881210 
	C135.343521,102.993713 135.843521,102.088089 136.611237,101.017365 
z"/>
<path fill="#DEF7CB" opacity="1.000000" stroke="none" 
	d="
M99.379959,102.910843 
	C100.067734,101.743111 101.286400,101.893166 102.773285,102.586426 
	C101.925430,102.883202 100.847534,102.959328 99.379959,102.910843 
z"/>
<path fill="#F0FAE4" opacity="1.000000" stroke="none" 
	d="
M63.351208,61.877377 
	C61.849808,61.080570 62.118561,60.454140 63.848137,60.072327 
	C63.970821,60.613541 63.783241,61.162998 63.351208,61.877377 
z"/>
<path fill="#F0FAE4" opacity="1.000000" stroke="none" 
	d="
M100.870636,56.710716 
	C100.655403,57.606667 100.148537,58.026550 99.147934,57.214752 
	C99.557808,56.842434 100.124001,56.703129 100.870636,56.710716 
z"/>
<path fill="#F0FBE2" opacity="1.000000" stroke="none" 
	d="
M59.656731,75.552902 
	C58.880943,75.060852 58.857433,74.216774 59.654396,73.190445 
	C59.852715,73.755402 59.831314,74.486282 59.656731,75.552902 
z"/>
<path fill="#F0FBE2" opacity="1.000000" stroke="none" 
	d="
M59.982948,86.619797 
	C58.990799,86.389618 58.889217,85.539375 59.368805,84.339226 
	C59.699726,84.827423 59.866085,85.540138 59.982948,86.619797 
z"/>
<path fill="#DEF7CB" opacity="1.000000" stroke="none" 
	d="
M107.768082,101.055298 
	C108.200096,100.964088 108.421730,100.998512 108.970329,101.115173 
	C108.744781,101.480423 108.192261,101.763428 107.320511,102.007156 
	C107.094788,101.640541 107.280258,101.378220 107.768082,101.055298 
z"/>
<path fill="#F0FAE4" opacity="1.000000" stroke="none" 
	d="
M93.689026,57.836914 
	C93.458641,58.191822 92.884117,58.549347 91.945984,58.874840 
	C92.169884,58.508385 92.757393,58.173958 93.689026,57.836914 
z"/>
<path fill="#F0FAE4" opacity="1.000000" stroke="none" 
	d="
M105.410843,38.583214 
	C105.618408,38.021095 106.125214,37.936798 106.798065,38.490166 
	C106.517014,38.680267 106.102386,38.707409 105.410843,38.583214 
z"/>
<path fill="#F0FBE2" opacity="1.000000" stroke="none" 
	d="
M61.063965,91.652039 
	C60.737411,91.388420 60.426968,90.771751 60.168053,89.785095 
	C60.506416,90.043060 60.793247,90.671028 61.063965,91.652039 
z"/>
<path fill="#F0FBE2" opacity="1.000000" stroke="none" 
	d="
M64.259644,99.528908 
	C63.493767,99.629990 63.132370,99.077667 63.145618,97.909042 
	C63.530827,98.094704 63.881489,98.644958 64.259644,99.528908 
z"/>
<path fill="#EAFED9" opacity="1.000000" stroke="none" 
	d="
M104.702484,88.985672 
	C104.775192,89.197281 104.591591,89.487076 104.157455,89.861191 
	C104.086670,89.651627 104.266418,89.357750 104.702484,88.985672 
z"/>
<path fill="#EAFED9" opacity="1.000000" stroke="none" 
	d="
M96.725113,97.020721 
	C96.790192,97.227249 96.604881,97.511696 96.169342,97.872856 
	C96.104324,97.665932 96.289528,97.382286 96.725113,97.020721 
z"/>
<path fill="#F0FBE2" opacity="1.000000" stroke="none" 
	d="
M66.960403,103.734131 
	C66.736992,103.781822 66.474197,103.564659 66.163071,103.088928 
	C66.383492,103.043343 66.652260,103.256317 66.960403,103.734131 
z"/>
<path fill="#F0FBE2" opacity="1.000000" stroke="none" 
	d="
M134.692444,103.970856 
	C134.763702,104.155624 134.597946,104.453453 134.201202,104.871330 
	C134.131958,104.688889 134.293686,104.386398 134.692444,103.970856 
z"/>
<path fill="#F0FBE2" opacity="1.000000" stroke="none" 
	d="
M131.633514,107.744217 
	C131.718582,107.950363 131.549210,108.312477 131.097351,108.798248 
	C131.002945,108.581322 131.191025,108.240753 131.633514,107.744217 
z"/>
<path fill="#F0FBE2" opacity="1.000000" stroke="none" 
	d="
M130.631622,108.884949 
	C130.711029,109.113625 130.522675,109.422562 130.065094,109.811600 
	C129.985214,109.582870 130.174545,109.274048 130.631622,108.884949 
z"/>
<path fill="#F0FBE2" opacity="1.000000" stroke="none" 
	d="
M129.619751,109.884872 
	C129.666916,110.118156 129.426926,110.436371 128.884125,110.820679 
	C128.831726,110.581116 129.082153,110.275467 129.619751,109.884872 
z"/>
<path fill="#F0FAE4" opacity="1.000000" stroke="none" 
	d="
M89.325363,39.873749 
	C89.342659,39.637531 89.665489,39.414169 90.294746,39.195282 
	C90.277740,39.428707 89.954323,39.657661 89.325363,39.873749 
z"/>
<path fill="#F0FAE4" opacity="1.000000" stroke="none" 
	d="
M65.353622,58.185120 
	C65.247124,57.999817 65.369659,57.652401 65.726822,57.148464 
	C65.835182,57.335629 65.708916,57.679317 65.353622,58.185120 
z"/>
<path fill="#F7FDF0" opacity="1.000000" stroke="none" 
	d="
M124.743240,69.055511 
	C124.913887,69.325996 124.730690,69.596207 124.215103,69.895157 
	C124.155022,69.704460 124.323921,69.414909 124.743240,69.055511 
z"/>
<path fill="#F7FDF0" opacity="1.000000" stroke="none" 
	d="
M123.742943,70.055618 
	C123.913322,70.327179 123.728905,70.597145 123.210373,70.893143 
	C123.150795,70.701790 123.321426,70.413406 123.742943,70.055618 
z"/>
<path fill="#F7FDF0" opacity="1.000000" stroke="none" 
	d="
M122.739426,71.050507 
	C122.806999,71.251732 122.624092,71.523193 122.210609,71.891891 
	C122.149666,71.699669 122.319305,71.410210 122.739426,71.050507 
z"/>
<path fill="#F7FDF0" opacity="1.000000" stroke="none" 
	d="
M121.740936,72.051483 
	C121.913506,72.321701 121.732895,72.593079 121.218544,72.893692 
	C121.157722,72.702904 121.325378,72.412811 121.740936,72.051483 
z"/>
<path fill="#F0FAE4" opacity="1.000000" stroke="none" 
	d="
M67.357208,55.161377 
	C67.263519,54.954033 67.423470,54.618858 67.843445,54.163353 
	C67.939255,54.373196 67.775055,54.703373 67.357208,55.161377 
z"/>
<path fill="#F7FDF0" opacity="1.000000" stroke="none" 
	d="
M120.739838,73.055069 
	C120.805222,73.258644 120.617462,73.526985 120.197891,73.889679 
	C120.139626,73.695969 120.313164,73.407898 120.739838,73.055069 
z"/>
<path fill="#F0FAE4" opacity="1.000000" stroke="none" 
	d="
M68.297852,54.009323 
	C68.212288,53.811756 68.371590,53.520031 68.757156,53.112053 
	C68.836517,53.302258 68.689621,53.608711 68.297852,54.009323 
z"/>
<path fill="#F0FAE4" opacity="1.000000" stroke="none" 
	d="
M69.228439,52.903503 
	C69.065308,52.666378 69.226250,52.406178 69.680466,52.087631 
	C69.903000,52.336311 69.762596,52.620026 69.228439,52.903503 
z"/>
<path fill="#EAFED9" opacity="1.000000" stroke="none" 
	d="
M99.699417,93.998566 
	C99.771355,94.214897 99.587036,94.506638 99.148407,94.877213 
	C99.077126,94.662025 99.260147,94.368004 99.699417,93.998566 
z"/>
<path fill="#F7FDF0" opacity="1.000000" stroke="none" 
	d="
M115.745422,78.059799 
	C115.917107,78.326363 115.737297,78.596474 115.227707,78.898506 
	C115.166588,78.710190 115.331917,78.421158 115.745422,78.059799 
z"/>
<path fill="#F7FDF0" opacity="1.000000" stroke="none" 
	d="
M115.021271,79.740479 
	C114.854027,79.992996 114.680473,79.998901 114.246437,79.997589 
	C114.154495,79.700127 114.323036,79.409882 114.745674,79.060196 
	C114.999771,79.000755 115.014946,79.493881 115.021271,79.740479 
z"/>
<path fill="#F7FDF0" opacity="1.000000" stroke="none" 
	d="
M113.738968,80.049316 
	C113.805817,80.253929 113.620522,80.524628 113.204788,80.893829 
	C113.145164,80.700012 113.315994,80.407700 113.738968,80.049316 
z"/>
<path fill="#F7FDF0" opacity="1.000000" stroke="none" 
	d="
M108.718979,85.019844 
	C108.768967,85.222954 108.563957,85.504593 108.104279,85.867355 
	C108.054405,85.665123 108.259193,85.381744 108.718979,85.019844 
z"/>
<path fill="#F7FDF0" opacity="1.000000" stroke="none" 
	d="
M122.315788,88.146133 
	C122.063904,87.944923 122.146408,87.633461 122.541733,87.197548 
	C122.661911,87.361000 122.593796,87.681923 122.315788,88.146133 
z"/>
<path fill="#F0FAE4" opacity="1.000000" stroke="none" 
	d="
M95.677155,57.197411 
	C95.654816,57.424263 95.338837,57.627331 94.730118,57.826111 
	C94.752762,57.605751 95.068138,57.389683 95.677155,57.197411 
z"/>
<path fill="#F7FDF0" opacity="1.000000" stroke="none" 
	d="
M121.363998,90.236504 
	C121.228981,90.051918 121.321762,89.706612 121.628769,89.193008 
	C121.759254,89.375069 121.675522,89.725426 121.363998,90.236504 
z"/>
<path fill="#F0FAE4" opacity="1.000000" stroke="none" 
	d="
M74.242523,47.897453 
	C74.198524,47.690945 74.411186,47.437740 74.865036,47.109573 
	C74.903877,47.306664 74.701530,47.578709 74.242523,47.897453 
z"/>
<path fill="#EAFED9" opacity="1.000000" stroke="none" 
	d="
M103.690994,89.988937 
	C103.768173,90.200348 103.594147,90.493698 103.170128,90.870621 
	C103.093353,90.659760 103.266571,90.365318 103.690994,89.988937 
z"/>
<path fill="#EAFED9" opacity="1.000000" stroke="none" 
	d="
M102.699020,90.996262 
	C102.775261,91.210762 102.597534,91.500702 102.170509,91.872826 
	C102.095825,91.660576 102.270439,91.366142 102.699020,90.996262 
z"/>
<path fill="#EAFED9" opacity="1.000000" stroke="none" 
	d="
M101.700287,91.998062 
	C101.777565,92.211990 101.601280,92.502159 101.177032,92.876770 
	C101.101608,92.665565 101.274170,92.369934 101.700287,91.998062 
z"/>
<path fill="#EAFED9" opacity="1.000000" stroke="none" 
	d="
M100.706009,93.003860 
	C100.780556,93.217789 100.600914,93.506058 100.172012,93.875244 
	C100.099113,93.663498 100.275475,93.370850 100.706009,93.003860 
z"/>
<path fill="#F3F3F3" opacity="1.000000" stroke="none" 
	d="
M64.273254,159.772736 
	C66.714622,156.454102 69.528740,155.167419 73.165504,156.675568 
	C76.122780,157.901917 77.510620,160.154785 77.253426,163.373520 
	C76.999245,166.554611 75.295761,168.558182 72.290367,169.548798 
	C67.606186,171.092789 61.811787,166.233841 64.273254,159.772736 
z"/>
<path fill="#D3D3D3" opacity="1.000000" stroke="none" 
	d="
M138.744568,166.526031 
	C136.400513,166.475998 133.886963,167.054764 135.602646,163.514496 
	C136.425812,161.815918 136.885468,159.941193 137.670288,157.684662 
	C139.743134,160.250092 139.906540,162.972839 140.809311,165.358551 
	C141.196152,166.380798 139.954239,166.479294 138.744568,166.526031 
z"/>
<path fill="#EAEAEA" opacity="1.000000" stroke="none" 
	d="
M122.289841,156.642700 
	C123.659492,158.843826 123.892624,160.762207 121.745110,162.003143 
	C120.507797,162.718124 118.728149,163.275116 117.629288,162.040848 
	C116.356491,160.611176 116.724968,158.353455 117.291176,156.912979 
	C118.159248,154.704575 120.306755,156.068481 122.289841,156.642700 
z"/>
<path fill="#FEFEFD" opacity="1.000000" stroke="none" 
	d="
M128.840118,71.789246 
	C128.539062,72.335335 128.066925,72.649910 127.297211,72.984344 
	C127.186913,72.095955 127.130714,70.906723 128.840118,71.789246 
z"/>
</svg>