<svg version="1.1" id="Layer_1" xmlns="http://www.w3.org/2000/svg" xmlns:xlink="http://www.w3.org/1999/xlink" x="0px" y="0px"
	 width="100%" viewBox="0 0 225 225" enable-background="new 0 0 225 225" xml:space="preserve">
<path fill="#FEFEFE" opacity="1.000000" stroke="none" 
	d="
M105.000000,226.000000 
	C70.000000,226.000000 35.500004,226.000000 1.000005,226.000000 
	C1.000003,151.000000 1.000003,76.000015 1.000002,1.000010 
	C74.666656,1.000000 148.333359,1.030417 221.999802,0.903709 
	C225.424240,0.897818 226.102371,1.575543 226.096344,5.000136 
	C225.969025,77.333244 225.969055,149.666687 226.096359,221.999786 
	C226.102386,225.424210 225.425919,226.112305 221.999649,226.098587 
	C183.166931,225.943146 144.333344,226.000000 105.000000,226.000000 
z"/>
<path fill="#056DB7" opacity="1.000000" stroke="none" 
	d="
M75.042793,120.252350 
	C70.805794,120.947220 69.574585,119.425987 69.920403,115.671745 
	C70.263885,111.942757 69.995605,108.157410 69.995605,102.972687 
	C65.367043,108.546234 61.470356,112.956192 57.918705,117.628433 
	C56.001240,120.150894 53.609615,120.859634 50.972626,120.070251 
	C48.373161,119.292084 49.618343,116.684021 49.521008,114.884186 
	C49.334377,111.433105 49.466713,107.964775 49.466713,102.912560 
	C45.705364,107.564522 42.496159,110.860840 40.100182,114.668839 
	C37.169193,119.327141 33.379055,121.090317 28.081408,120.286285 
	C26.622866,120.064934 25.102245,120.252632 23.667088,120.252632 
	C22.794294,118.627464 24.214348,118.050949 24.831171,117.277969 
	C33.852852,105.972374 42.939716,94.718811 51.970848,83.420708 
	C53.386654,81.649506 54.846333,80.030945 57.347832,80.760803 
	C60.249420,81.607414 58.794441,84.112839 58.888939,85.839607 
	C59.113537,89.943787 58.961250,94.068596 58.961250,99.383568 
	C64.119995,93.536560 68.598610,88.546623 72.968033,83.462837 
	C74.569717,81.599289 76.236748,79.946335 78.857880,80.779541 
	C81.654800,81.668617 80.281975,84.192879 80.307892,85.920166 
	C80.455116,95.732452 80.196823,105.553154 80.469299,115.360077 
	C80.577583,119.257469 79.496323,120.949127 75.042793,120.252350 
z"/>
<path fill="#076EB7" opacity="1.000000" stroke="none" 
	d="
M140.028503,94.791504 
	C139.756760,97.394798 139.343018,99.920082 137.739380,101.147743 
	C133.257309,104.578949 135.135239,107.725021 137.385330,111.221794 
	C139.072922,113.844437 140.486237,116.643578 142.061523,119.434715 
	C132.714569,121.724724 131.147934,121.085892 126.848778,113.508629 
	C124.406578,109.204247 121.933388,104.917465 119.434357,100.553268 
	C121.542770,99.444756 123.392250,100.132118 125.148071,99.880211 
	C128.652069,99.377495 130.656998,97.208733 130.570770,93.835907 
	C130.490616,90.701492 128.454071,88.726456 125.209259,88.216614 
	C118.604340,87.178818 117.880592,87.792442 117.879593,94.549622 
	C117.878517,101.876297 117.778633,109.205063 117.931198,116.528549 
	C117.987007,119.207550 117.406837,120.308807 114.413704,120.338303 
	C106.968391,120.411697 106.969917,120.580124 106.970032,113.058792 
	C106.970184,103.567413 107.082634,94.073944 106.905510,84.585876 
	C106.849258,81.572624 107.667320,80.468452 110.788338,80.596436 
	C115.939880,80.807693 121.112267,80.468765 126.268456,80.617943 
	C134.895874,80.867546 139.508514,85.571587 140.028503,94.791504 
z"/>
<path fill="#076EB7" opacity="1.000000" stroke="none" 
	d="
M192.888855,89.549034 
	C190.747971,89.553139 189.075928,89.645409 187.416046,89.542145 
	C184.550323,89.363853 184.855774,91.299683 184.738632,93.166870 
	C184.602814,95.332321 185.424393,96.133842 187.595291,96.026283 
	C190.421555,95.886253 193.274734,95.824295 196.086777,96.068733 
	C197.391235,96.182121 200.274628,94.806030 199.738907,97.457260 
	C199.276917,99.743469 199.809433,103.598297 195.699890,103.851128 
	C193.541336,103.983925 191.363647,103.966866 189.202667,103.857689 
	C186.487350,103.720497 184.620468,103.723221 184.608078,107.598129 
	C184.594635,111.802322 187.020325,111.115883 189.453979,111.119926 
	C193.620483,111.126846 197.790207,111.216934 201.952209,111.079414 
	C204.014267,111.011292 204.564285,111.548759 204.012695,113.604912 
	C202.881561,117.821442 201.673904,121.121109 195.898376,120.411926 
	C190.151840,119.706291 184.249023,120.164581 178.418777,120.294304 
	C175.395844,120.361565 173.807739,119.627724 173.862595,116.132820 
	C174.029999,105.469139 174.021194,94.799667 173.859482,84.135803 
	C173.814468,81.167458 174.962662,80.453423 177.648315,80.497719 
	C184.811920,80.615845 191.979706,80.477516 199.143463,80.590561 
	C200.531952,80.612465 203.413513,79.694466 202.957031,81.966164 
	C202.419632,84.640564 203.022614,88.694023 198.852386,89.483551 
	C197.081955,89.818733 195.196381,89.545776 192.888855,89.549034 
z"/>
<path fill="#096FB8" opacity="1.000000" stroke="none" 
	d="
M155.757050,81.652466 
	C155.870163,90.563057 155.983994,99.039589 155.824112,107.510956 
	C155.770416,110.356209 156.674118,111.308388 159.494659,111.165154 
	C163.467285,110.963432 167.457794,111.114120 171.500046,111.114120 
	C171.851135,113.177177 170.643539,114.707405 170.321136,116.423836 
	C169.768372,119.366707 168.314072,120.503098 165.187088,120.338936 
	C159.884293,120.060555 154.552338,120.136208 149.240448,120.306801 
	C145.948166,120.412537 144.904922,119.066261 144.945953,115.883057 
	C145.078690,105.582352 145.134323,95.275940 144.917755,84.978073 
	C144.845291,81.531944 145.788101,80.017555 149.325302,80.512741 
	C151.425095,80.806702 153.648666,80.004585 155.757050,81.652466 
z"/>
<path fill="#1271B8" opacity="1.000000" stroke="none" 
	d="
M143.476959,140.903336 
	C145.860809,141.113434 147.883286,140.496658 150.027557,141.475403 
	C147.791870,144.851761 143.662018,141.439850 140.303711,145.053879 
	C144.181442,145.053879 147.012222,145.020432 149.841187,145.077118 
	C150.559402,145.091507 151.654480,144.691376 151.833527,145.874939 
	C152.025253,147.142258 151.103561,147.682648 150.027222,147.707748 
	C147.170685,147.774414 144.311569,147.730377 141.473679,148.332932 
	C145.390656,150.727234 149.850555,148.679199 154.188950,150.377838 
	C151.599045,153.284561 148.600067,152.032471 146.051361,151.999863 
	C142.666168,151.956528 140.561218,152.383942 141.133408,156.513779 
	C141.319458,157.856506 142.100174,160.070526 139.262863,160.179123 
	C136.027344,160.302963 136.937332,157.843689 137.105972,156.341141 
	C137.521866,152.635315 135.854691,151.964310 132.537750,151.991913 
	C129.750076,152.015091 124.203613,152.596939 124.570999,151.266953 
	C125.523705,147.817978 129.782822,150.318008 132.600998,149.702011 
	C133.975616,149.401550 135.573502,150.096237 136.775711,148.880341 
	C136.084442,147.266037 134.742615,147.765991 133.709351,147.802872 
	C129.827179,147.941345 125.646553,148.606354 126.888702,142.364349 
	C126.919830,142.207932 126.931305,141.940887 126.845627,141.883118 
	C118.609505,136.330414 129.401505,133.835846 128.920837,129.436493 
	C128.773148,128.084793 130.628067,128.231659 131.775101,128.329208 
	C132.875488,128.422775 133.230515,129.238907 132.817398,130.077682 
	C131.926834,131.885864 132.955841,132.028152 134.279877,131.952545 
	C135.472626,131.884445 136.913467,132.488007 136.780365,130.099808 
	C136.616501,127.159485 139.808807,127.997467 140.046509,128.750580 
	C141.613968,133.716751 145.557770,131.494644 148.582199,131.956161 
	C149.544830,132.103058 150.529587,132.105148 151.923599,132.202896 
	C149.375183,136.863602 144.551849,132.875198 141.570312,135.615036 
	C143.918381,138.227325 147.299347,135.786316 149.937973,137.430954 
	C148.080307,140.041794 145.358002,138.336029 143.179779,138.886475 
	C142.468231,139.066254 141.306702,138.763550 141.520782,140.023560 
	C141.582962,140.389496 142.512787,140.607986 143.476959,140.903336 
z"/>
<path fill="#E7383E" opacity="1.000000" stroke="none" 
	d="
M95.431412,102.599304 
	C95.024742,104.284195 94.736923,105.580795 94.501602,106.886841 
	C93.514214,112.366936 94.747627,114.190903 100.152458,114.968910 
	C101.177643,115.116470 102.292206,115.059029 102.658371,116.110680 
	C103.070053,117.293076 101.886398,117.817490 101.121460,118.302116 
	C97.022102,120.899345 92.594383,122.395874 87.985077,120.043419 
	C83.468285,117.738174 83.630798,113.222336 84.149216,109.090683 
	C85.100075,101.512543 87.221214,94.185493 89.693535,86.957779 
	C91.981567,80.268822 97.342415,83.838120 101.827179,82.655914 
	C99.597992,89.629089 97.586205,95.922218 95.431412,102.599304 
z"/>
<path fill="#1371B8" opacity="1.000000" stroke="none" 
	d="
M191.987732,129.097626 
	C204.904755,129.097565 204.904877,129.097565 204.904709,141.407196 
	C204.904648,146.568878 204.768692,151.735565 204.958939,156.890213 
	C205.058289,159.582382 204.057571,160.284988 201.517975,160.245987 
	C193.361099,160.120697 185.200333,160.136948 177.042786,160.237686 
	C174.744461,160.266068 173.813187,159.649200 173.852463,157.171478 
	C173.984375,148.848267 173.970047,140.520767 173.859756,132.196930 
	C173.828171,129.814438 174.612625,128.984085 177.005798,129.056061 
	C181.830093,129.201141 186.661850,129.098236 191.987732,129.097626 
z"/>
<path fill="#1171B8" opacity="1.000000" stroke="none" 
	d="
M49.528877,148.909653 
	C50.672554,152.081726 47.681698,155.934387 52.171974,157.933060 
	C52.706791,158.171127 52.233727,160.065491 51.003704,160.076691 
	C41.856529,160.160019 32.705956,160.235565 23.562084,160.044296 
	C21.427254,159.999634 21.706232,158.029907 23.220646,157.596283 
	C25.646999,156.901505 25.388802,155.237991 25.158792,153.722534 
	C24.490326,149.318161 26.546816,148.178925 30.489786,148.684265 
	C32.291420,148.915176 34.145180,148.739395 36.430519,148.728455 
	C37.364651,148.424347 37.863003,148.179398 38.788761,147.877350 
	C40.310394,147.610733 41.432194,147.642410 42.977314,147.635101 
	C45.384411,147.738312 47.448708,147.347488 49.528877,148.909653 
z"/>
<path fill="#086CB7" opacity="1.000000" stroke="none" 
	d="
M93.930115,140.018219 
	C97.109703,139.151016 99.017525,139.341980 97.327736,143.108948 
	C96.655022,144.608582 96.366852,146.282532 95.922447,147.882339 
	C95.266022,150.245453 93.176796,152.847473 94.301697,154.891342 
	C95.429230,156.939972 98.560837,155.391205 100.780235,155.740585 
	C101.709473,155.886871 102.997261,155.607773 102.828453,157.120804 
	C102.696297,158.305328 102.137367,159.394409 100.648476,159.394379 
	C91.991219,159.394257 83.333961,159.385681 74.676720,159.371262 
	C73.516365,159.369324 72.826469,158.865143 72.792946,157.596710 
	C72.749382,155.948669 73.791069,155.742523 75.067795,155.748779 
	C77.232132,155.759354 79.462059,155.407349 81.548492,155.809372 
	C87.415588,156.939896 89.973785,154.257446 90.932465,148.781677 
	C91.441620,145.873489 92.714149,143.098938 93.930115,140.018219 
z"/>
<path fill="#1271B8" opacity="1.000000" stroke="none" 
	d="
M37.236679,147.412369 
	C35.899807,146.989380 35.523453,146.285629 35.206192,145.170013 
	C38.896183,142.378647 37.506950,138.193268 37.951233,134.495422 
	C38.164341,132.721695 36.729145,129.795410 39.267963,129.414322 
	C42.926174,128.865204 46.795227,128.656982 50.484718,129.697556 
	C50.853645,129.801590 51.032234,131.147385 51.028057,131.915390 
	C51.001141,136.861115 50.898712,141.806442 50.471054,147.032104 
	C48.244251,148.301300 46.218185,147.920746 43.827972,147.909714 
	C40.851597,146.668869 40.953289,145.409271 43.656517,143.968185 
	C44.580482,143.602585 45.204269,143.407883 45.750053,142.573212 
	C46.067245,141.910858 46.235546,141.522980 46.452026,140.811630 
	C45.862507,138.274506 46.492096,136.008835 46.395180,134.801376 
	C46.563576,135.942123 45.671402,138.145752 46.390930,140.638153 
	C44.380032,143.319199 41.129478,144.261780 39.376854,147.337830 
	C38.564831,147.648651 38.073967,147.658188 37.236679,147.412369 
z"/>
<path fill="#1A76BA" opacity="1.000000" stroke="none" 
	d="
M34.952446,144.953568 
	C34.651489,144.902313 34.321419,144.846466 33.990273,144.839203 
	C22.580036,144.588028 22.669172,144.593033 23.224348,133.246643 
	C23.352587,130.625793 24.203228,129.942352 26.742542,129.877075 
	C35.162983,129.660599 35.168831,129.552582 35.151104,138.121948 
	C35.146988,140.113449 35.062202,142.104767 34.947704,144.561539 
	C34.880875,145.026901 34.922832,144.971634 34.952446,144.953568 
z"/>
<path fill="#1A76BA" opacity="1.000000" stroke="none" 
	d="
M83.065872,137.122070 
	C81.247803,137.121552 79.891403,137.288818 78.596901,137.077316 
	C77.052826,136.824982 74.401062,138.304108 74.341255,135.299423 
	C74.272789,131.859604 77.208603,133.621002 78.851227,133.248581 
	C79.799316,133.033630 80.839851,133.151672 81.831802,133.220413 
	C83.921165,133.365204 85.533852,133.128677 84.888481,130.338730 
	C84.649895,129.307297 84.789749,128.276703 86.226562,128.260330 
	C87.189140,128.249359 88.756332,127.933655 88.887924,128.963257 
	C89.598228,134.521057 93.714813,132.988800 97.096924,133.263901 
	C98.480255,133.376434 100.859886,132.094696 100.991745,134.814896 
	C101.129326,137.653183 98.750664,137.095840 97.010933,137.109665 
	C92.525856,137.145309 88.040306,137.121964 83.065872,137.122070 
z"/>
<path fill="#E73A40" opacity="1.000000" stroke="none" 
	d="
M105.022202,74.736130 
	C104.539207,75.472549 104.271423,75.909630 103.909767,76.245697 
	C101.851562,78.158257 99.576485,79.391327 96.696724,78.177010 
	C94.754944,77.358208 93.987129,75.671120 94.145683,73.737213 
	C94.380150,70.877388 95.951706,68.760193 98.544342,67.521194 
	C100.616013,66.531151 102.783340,66.318527 104.587997,68.009193 
	C106.587395,69.882317 106.437027,72.124146 105.022202,74.736130 
z"/>
<path fill="#0F70B8" opacity="1.000000" stroke="none" 
	d="
M83.509048,145.528229 
	C83.950470,147.190750 84.327614,148.457535 84.515762,149.751785 
	C84.693878,150.976929 86.248856,152.691025 83.602547,153.150757 
	C81.676003,153.485443 80.511383,152.742813 80.084373,150.717957 
	C79.509018,147.989655 78.656334,145.317932 78.131256,142.581894 
	C77.934975,141.559158 76.633858,139.830933 78.985962,139.534134 
	C80.420074,139.353149 82.041115,139.255814 82.463615,141.313309 
	C82.727371,142.597717 83.060326,143.867905 83.509048,145.528229 
z"/>
<path fill="#1371B8" opacity="1.000000" stroke="none" 
	d="
M148.508743,158.752594 
	C147.081467,157.155396 145.905136,155.810501 144.690170,154.421417 
	C148.870316,153.353973 148.954651,153.407135 153.263809,159.738022 
	C151.632767,160.156921 150.054428,160.510345 148.508743,158.752594 
z"/>
<path fill="#2477BA" opacity="1.000000" stroke="none" 
	d="
M131.086380,157.305878 
	C128.329590,159.941986 128.329590,159.941986 124.612816,159.565414 
	C127.363579,156.988663 128.493027,152.665573 133.487259,153.741898 
	C133.462234,155.448029 132.025742,155.988571 131.086380,157.305878 
z"/>
<path fill="#B5D0E4" opacity="1.000000" stroke="none" 
	d="
M42.747574,147.384949 
	C45.040108,147.123886 47.143906,147.095993 49.684372,147.190216 
	C50.056335,147.740707 49.991631,148.169083 49.868515,148.917328 
	C47.786877,149.133469 45.763645,149.029739 43.316589,148.817764 
	C42.613232,148.397186 42.510483,148.030777 42.747574,147.384949 
z"/>
<path fill="#B5D0E4" opacity="1.000000" stroke="none" 
	d="
M36.874763,147.502441 
	C37.359211,147.223129 37.824810,147.184814 38.626419,147.046875 
	C39.287327,147.274628 39.436409,147.672195 39.271408,148.419479 
	C38.611179,148.777161 38.114201,148.845352 37.251480,148.811188 
	C36.844135,148.388000 36.834194,148.066193 36.874763,147.502441 
z"/>
<path fill="#E4EFF4" opacity="1.000000" stroke="none" 
	d="
M131.148499,143.656738 
	C131.098999,141.223633 131.086853,139.241241 131.092178,137.258865 
	C131.095261,136.106903 130.943558,134.765350 132.523087,134.550522 
	C133.942703,134.357422 136.090805,133.745941 136.586487,135.193329 
	C137.540222,137.978256 133.936951,136.021072 133.410400,137.822495 
	C133.730103,139.811813 136.158157,138.032471 136.869766,139.544662 
	C136.984604,142.024368 133.746292,140.086563 133.372086,142.387299 
	C134.066406,143.642181 136.198975,142.295883 137.040512,144.124420 
	C135.080292,145.503220 133.191345,145.808090 131.148499,143.656738 
z"/>
<path fill="#0F70B8" opacity="1.000000" stroke="none" 
	d="
M185.730255,134.535706 
	C185.925354,134.068924 185.936890,133.890717 185.950134,133.444672 
	C192.132309,131.827286 199.458923,136.370529 199.231827,141.422195 
	C199.164215,142.926697 199.006592,144.414917 197.663010,145.428619 
	C198.361313,145.831818 195.242264,145.404770 197.507126,146.138199 
	C198.718719,146.530548 199.752716,147.126572 199.182343,148.592087 
	C198.655762,149.945038 197.382233,149.812637 196.159027,149.946320 
	C196.124588,150.626297 196.136292,151.032440 196.158325,151.781738 
	C196.155975,152.839874 196.062119,153.545029 195.820602,154.601440 
	C195.461899,155.663986 195.082550,156.298706 194.282440,157.077438 
	C193.267471,157.510361 192.534225,157.486191 191.447815,157.389954 
	C190.731857,156.996201 190.479492,156.608765 190.338943,155.793121 
	C190.385666,154.570587 190.662415,153.720978 190.661560,152.524323 
	C190.585007,151.797516 190.458160,151.404846 190.000427,150.841599 
	C186.732040,149.768494 183.429214,151.134949 180.254410,149.194077 
	C179.982010,148.946182 179.991592,148.997025 180.016693,149.003281 
	C179.765137,148.781158 179.584930,148.505432 179.584137,148.182129 
	C179.581161,146.970459 180.364426,146.315186 181.402115,146.190430 
	C184.425690,145.826889 180.843689,145.694244 181.388062,145.448212 
	C180.479340,144.861496 180.169724,143.935226 179.930298,142.949234 
	C178.946136,138.896408 180.218918,137.046402 185.730255,134.535706 
z"/>
<path fill="#D0E1EE" opacity="1.000000" stroke="none" 
	d="
M195.217407,150.445953 
	C194.880798,149.870193 194.613266,149.223770 194.731689,149.142975 
	C195.902863,148.343811 198.794128,150.032944 198.397949,147.508881 
	C198.083649,145.506470 195.547958,147.199066 194.050369,146.854950 
	C193.161011,146.650589 192.122131,147.247513 191.344818,146.373428 
	C191.454315,145.204956 192.391159,145.077271 193.140625,145.211243 
	C198.568085,146.181396 197.953110,142.516953 197.805191,139.210098 
	C197.783859,138.733078 197.625244,138.262207 197.530151,137.788483 
	C192.681046,139.109985 191.436691,132.282043 186.390930,133.116150 
	C187.899017,131.913879 198.558609,131.052917 199.928436,132.051743 
	C201.062119,132.878357 200.768051,134.117508 200.773071,135.226776 
	C200.801468,141.508621 200.643860,147.795364 200.849472,154.070618 
	C200.951096,157.171661 199.838745,158.192719 196.849579,157.955551 
	C194.221207,157.747040 191.563477,157.908524 188.461960,157.821899 
	C187.944992,157.507294 187.884781,157.277344 188.074707,156.792023 
	C188.998688,156.206818 189.692261,156.163513 190.718292,156.565079 
	C191.772537,156.778198 192.513138,156.819870 193.601761,156.726486 
	C194.338776,156.356812 194.546814,156.007935 194.766571,155.282684 
	C195.004410,154.358627 195.075745,153.713226 195.168503,152.743469 
	C195.352417,151.836243 195.815125,151.299881 195.217407,150.445953 
z"/>
<path fill="#E0EBF3" opacity="1.000000" stroke="none" 
	d="
M185.533051,134.146698 
	C185.769867,135.187943 190.057114,137.114456 185.521210,136.960785 
	C181.830902,136.835754 180.904556,137.837112 180.787598,141.564529 
	C180.643570,146.155563 183.480515,145.039688 185.894897,145.249908 
	C186.539200,145.306015 187.235092,145.380157 187.343521,146.321411 
	C185.304276,148.458954 181.877167,145.333237 180.031967,148.595901 
	C177.863739,150.517731 178.109497,148.585495 178.094696,147.512161 
	C178.033249,143.057144 178.090530,138.600494 178.184357,133.772583 
	C178.372513,133.222778 178.480576,133.044830 178.898193,132.825974 
	C181.208374,133.115356 182.999786,134.431747 185.533051,134.146698 
z"/>
<path fill="#E0EBF3" opacity="1.000000" stroke="none" 
	d="
M188.593002,156.352325 
	C188.255966,156.708374 188.195541,156.911560 188.070160,157.425980 
	C186.530746,157.781006 185.056381,157.858444 183.581818,157.862701 
	C177.379013,157.880661 176.935516,157.183823 179.409637,150.589386 
	C181.878510,151.337357 183.734802,152.080673 185.957977,151.193542 
	C187.772034,150.469666 189.786499,150.434921 191.681610,152.060028 
	C191.686813,153.137634 191.559952,153.855972 191.212006,154.748322 
	C190.486923,155.685425 189.666718,155.923264 188.593002,156.352325 
z"/>
<path fill="#2477BA" opacity="1.000000" stroke="none" 
	d="
M191.857529,151.999664 
	C189.222565,152.538208 186.664490,151.305130 184.202789,154.033203 
	C182.789932,155.598953 181.334961,152.762924 180.007935,151.094299 
	C179.926712,150.594299 179.929642,150.598251 179.948975,150.574463 
	C183.495880,148.409882 187.356186,149.977570 191.491302,149.726288 
	C191.930084,150.456757 191.915726,151.018387 191.857529,151.999664 
z"/>
<path fill="#FEFEFE" opacity="1.000000" stroke="none" 
	d="
M191.717545,149.540421 
	C188.249603,150.030609 184.554733,150.166122 180.414093,150.426163 
	C179.752747,150.281433 179.537170,150.012177 179.651794,149.344543 
	C183.818222,149.026031 187.654419,149.105896 191.717545,149.540421 
z"/>
<path fill="#E0EBF3" opacity="1.000000" stroke="none" 
	d="
M178.516190,133.271149 
	C178.191727,132.824310 177.683716,131.957291 179.101746,132.545288 
	C179.061142,132.903885 178.914536,133.022736 178.516190,133.271149 
z"/>
<path fill="#FEFEFE" opacity="1.000000" stroke="none" 
	d="
M39.486187,148.732712 
	C39.094379,148.315659 39.080597,147.922348 39.014622,147.238144 
	C40.472389,144.435883 41.488270,141.373291 45.510727,141.115753 
	C45.998329,140.745468 46.194038,140.598740 46.611965,140.743973 
	C46.861450,141.471268 46.888718,141.906601 46.874252,142.667587 
	C46.635597,143.344421 46.490658,143.715897 46.146061,144.273315 
	C44.647430,145.154556 41.934822,143.595932 42.604752,146.962173 
	C42.928322,147.497589 42.920338,147.843399 42.902557,148.449371 
	C41.883244,148.725159 40.873730,148.740799 39.486187,148.732712 
z"/>
<path fill="#C6DBEA" opacity="1.000000" stroke="none" 
	d="
M32.101318,152.029846 
	C32.337757,152.825882 32.489803,153.319626 32.437870,153.790878 
	C32.289497,155.137161 33.115902,157.040283 31.142918,157.503204 
	C29.645840,157.854477 29.199839,156.413269 29.376846,155.252441 
	C29.609152,153.728973 28.189650,150.781494 32.101318,152.029846 
z"/>
<path fill="#E0EBF3" opacity="1.000000" stroke="none" 
	d="
M36.449699,157.087250 
	C36.120949,156.326340 35.940498,155.819107 36.036575,155.371155 
	C36.335720,153.976379 35.007469,151.897430 37.492416,151.402725 
	C38.406868,151.220688 39.192146,152.104996 38.926910,152.880875 
	C38.392033,154.445511 40.821354,157.575775 36.449699,157.087250 
z"/>
<path fill="#C6DBEA" opacity="1.000000" stroke="none" 
	d="
M45.722496,155.573792 
	C45.458366,157.107864 44.553486,158.060455 43.653191,157.394333 
	C41.918747,156.111053 42.848545,154.058289 42.957264,152.316040 
	C43.002403,151.592712 43.714142,151.150650 44.418877,151.372543 
	C46.497967,152.027191 45.498753,153.837143 45.722496,155.573792 
z"/>
<path fill="#D5E5EF" opacity="1.000000" stroke="none" 
	d="
M46.911343,140.584991 
	C46.660992,141.021088 46.487804,141.006256 46.058617,140.941803 
	C44.024601,138.828857 47.504951,134.184341 42.320171,133.738800 
	C42.286171,133.735870 42.229820,132.519348 42.344799,132.489517 
	C43.270760,132.249222 44.231506,132.104263 45.189213,132.034821 
	C46.371761,131.949051 47.010658,132.562302 47.013023,133.758133 
	C47.017223,135.883423 46.997952,138.008759 46.911343,140.584991 
z"/>
<path fill="#D5E5EF" opacity="1.000000" stroke="none" 
	d="
M46.173985,144.475250 
	C46.084919,144.043640 46.274994,143.648178 46.648796,143.122971 
	C46.706055,143.499298 46.579590,144.005341 46.173985,144.475250 
z"/>
<path fill="#D5E5EF" opacity="1.000000" stroke="none" 
	d="
M27.853626,141.531891 
	C27.137815,139.736359 27.441158,138.636780 29.290751,138.513062 
	C30.572027,138.427383 31.101431,139.140396 31.032806,140.332703 
	C30.908993,142.483978 29.410955,141.941620 27.853626,141.531891 
z"/>
<path fill="#E0EBF3" opacity="1.000000" stroke="none" 
	d="
M27.504395,134.849152 
	C27.705954,132.443237 29.216570,132.690414 30.418917,133.092239 
	C31.257113,133.372360 31.305489,134.680038 30.879467,135.252670 
	C29.906689,136.560211 28.665926,136.312561 27.504395,134.849152 
z"/>
<path fill="#D5E5EF" opacity="1.000000" stroke="none" 
	d="
M192.951569,143.596466 
	C190.035889,142.729233 192.922073,140.453720 191.504913,139.263092 
	C192.299805,139.253937 193.547165,138.923126 193.809708,139.292419 
	C194.836517,140.736771 195.006805,142.327805 192.951569,143.596466 
z"/>
<path fill="#C6DBEA" opacity="1.000000" stroke="none" 
	d="
M184.127213,141.683517 
	C183.932098,139.326218 185.112091,138.313721 186.701767,139.158600 
	C187.777420,139.730286 185.846451,141.849991 187.338409,142.977692 
	C185.857712,144.076004 184.672668,144.164642 184.127213,141.683517 
z"/>
<path fill="#2477BA" opacity="1.000000" stroke="none" 
	d="
M194.994751,150.615829 
	C195.982895,150.541351 197.598740,149.829895 197.834274,151.368042 
	C197.987549,152.369217 196.626419,152.045837 195.559692,152.352173 
	C195.133392,151.938568 195.076859,151.458054 194.994751,150.615829 
z"/>
<path fill="#2477BA" opacity="1.000000" stroke="none" 
	d="
M188.650787,156.590714 
	C188.275482,155.067261 189.175339,154.774033 190.675049,154.874329 
	C190.997711,155.325562 191.004501,155.728806 191.021622,156.434296 
	C190.349686,156.716431 189.667419,156.696320 188.650787,156.590714 
z"/>
<path fill="#2477BA" opacity="1.000000" stroke="none" 
	d="
M194.729523,155.140808 
	C194.778381,155.489288 194.623672,155.974579 194.209381,156.525650 
	C194.141846,156.153488 194.333908,155.715546 194.729523,155.140808 
z"/>
</svg>