<svg version="1.1" id="Layer_1" xmlns="http://www.w3.org/2000/svg" xmlns:xlink="http://www.w3.org/1999/xlink" x="0px" y="0px"
	 width="100%" viewBox="0 0 600 600" enable-background="new 0 0 600 600" xml:space="preserve">
<path fill="#3253DC" opacity="1.000000" stroke="none" 
	d="
M395.000000,601.000000 
	C263.333344,601.000000 132.166672,601.000000 1.000000,601.000000 
	C1.000000,401.000000 1.000000,201.000000 1.000000,1.000000 
	C201.000000,1.000000 401.000000,1.000000 601.000000,1.000000 
	C601.000000,201.000000 601.000000,401.000000 601.000000,601.000000 
	C532.500000,601.000000 464.000000,601.000000 395.000000,601.000000 
M402.490601,526.001709 
	C405.323059,526.001648 408.155548,526.009521 410.987976,526.000244 
	C422.216827,525.963440 426.782562,519.234741 422.548096,508.911499 
	C417.561890,496.755493 412.530945,484.617859 407.531433,472.467285 
	C403.627228,462.978577 399.741364,453.482269 395.889618,444.092346 
	C475.837463,389.621521 493.053772,287.204712 447.725250,212.276688 
	C403.380981,138.975601 310.505463,109.312218 232.800766,143.721283 
	C152.229218,179.399841 111.571571,267.110901 137.162308,351.282806 
	C149.671555,392.427673 174.683212,424.562958 211.388977,446.998566 
	C254.945953,473.621826 301.676025,478.659088 350.847748,465.310394 
	C351.582520,466.939972 352.300385,468.420258 352.926758,469.938293 
	C359.269562,485.311249 365.596039,500.690948 371.930115,516.067505 
	C375.382263,524.447998 377.647675,525.992249 386.497314,526.000793 
	C391.496185,526.005615 396.495056,526.001709 402.490601,526.001709 
z"/>
<path fill="#FEFEFF" opacity="1.000000" stroke="none" 
	d="
M401.992249,526.001709 
	C396.495056,526.001709 391.496185,526.005615 386.497314,526.000793 
	C377.647675,525.992249 375.382263,524.447998 371.930115,516.067505 
	C365.596039,500.690948 359.269562,485.311249 352.926758,469.938293 
	C352.300385,468.420258 351.582520,466.939972 350.847748,465.310394 
	C301.676025,478.659088 254.945953,473.621826 211.388977,446.998566 
	C174.683212,424.562958 149.671555,392.427673 137.162308,351.282806 
	C111.571571,267.110901 152.229218,179.399841 232.800766,143.721283 
	C310.505463,109.312218 403.380981,138.975601 447.725250,212.276688 
	C493.053772,287.204712 475.837463,389.621521 395.889618,444.092346 
	C399.741364,453.482269 403.627228,462.978577 407.531433,472.467285 
	C412.530945,484.617859 417.561890,496.755493 422.548096,508.911499 
	C426.782562,519.234741 422.216827,525.963440 410.987976,526.000244 
	C408.155548,526.009521 405.323059,526.001648 401.992249,526.001709 
M263.746765,189.161392 
	C197.562195,212.458618 165.260712,284.401001 192.815384,347.611084 
	C220.867569,411.962341 289.635010,427.984894 330.063568,414.465424 
	C322.537384,396.162964 314.935791,377.903656 307.529297,359.565552 
	C304.076324,351.016235 308.844757,344.029633 318.005768,343.945221 
	C327.499969,343.857727 336.996307,343.995819 346.490295,343.898132 
	C352.023071,343.841248 355.622009,346.432465 357.692596,351.395782 
	C359.292816,355.231628 360.828705,359.094208 362.416046,362.935486 
	C366.451935,372.702240 370.500671,382.463684 374.592590,392.343872 
	C410.782196,365.665588 433.073334,307.589630 408.598175,252.956589 
	C383.833984,197.678268 322.175385,170.412415 263.746765,189.161392 
z"/>
<path fill="#3353DC" opacity="1.000000" stroke="none" 
	d="
M264.129517,189.054138 
	C322.175385,170.412415 383.833984,197.678268 408.598175,252.956589 
	C433.073334,307.589630 410.782196,365.665588 374.592590,392.343872 
	C370.500671,382.463684 366.451935,372.702240 362.416046,362.935486 
	C360.828705,359.094208 359.292816,355.231628 357.692596,351.395782 
	C355.622009,346.432465 352.023071,343.841248 346.490295,343.898132 
	C336.996307,343.995819 327.499969,343.857727 318.005768,343.945221 
	C308.844757,344.029633 304.076324,351.016235 307.529297,359.565552 
	C314.935791,377.903656 322.537384,396.162964 330.063568,414.465424 
	C289.635010,427.984894 220.867569,411.962341 192.815384,347.611084 
	C165.260712,284.401001 197.562195,212.458618 264.129517,189.054138 
z"/>
</svg>